<?xml version="1.0" encoding="UTF-8" standalone="no"?>
<!-- Generator: Adobe Illustrator 25.3.1, SVG Export Plug-In . SVG Version: 6.00 Build 0)  -->

<svg
   version="1.1"
   id="svg5"
   inkscape:version="1.1 (c4e8f9e, 2021-05-24)"
   sodipodi:docname="paw.svg"
   x="0px"
   y="0px"
   viewBox="0 0 340.77311 310.1571"
   xml:space="preserve"
   width="340.7731"
   height="310.1571"
   xmlns:inkscape="http://www.inkscape.org/namespaces/inkscape"
   xmlns:sodipodi="http://sodipodi.sourceforge.net/DTD/sodipodi-0.dtd"
   xmlns="http://www.w3.org/2000/svg"
   xmlns:svg="http://www.w3.org/2000/svg"><defs
   id="defs867"><inkscape:path-effect
   effect="spiro"
   id="path-effect2643"
   is_visible="true"
   lpeversion="1" /><inkscape:path-effect
   effect="spiro"
   id="path-effect2534"
   is_visible="true"
   lpeversion="1" /><inkscape:path-effect
   effect="spiro"
   id="path-effect2506"
   is_visible="true"
   lpeversion="1" /><inkscape:path-effect
   effect="spiro"
   id="path-effect1013"
   is_visible="true"
   lpeversion="1" /><inkscape:path-effect
   effect="spiro"
   id="path-effect1009"
   is_visible="true"
   lpeversion="1" /><inkscape:path-effect
   effect="spiro"
   id="path-effect1005"
   is_visible="true"
   lpeversion="1" />
		
	
			
			
			
			
			
			
			
			
			
			
		</defs>
<style
   type="text/css"
   id="style824">
	.st0{fill:none;stroke:#000000;stroke-width:8.5039;stroke-linecap:round;stroke-linejoin:round;stroke-miterlimit:11.3386;}
</style>
<sodipodi:namedview
   bordercolor="#666666"
   borderopacity="1.0"
   id="namedview7"
   inkscape:current-layer="path1264-2_7_"
   inkscape:cx="31.227849"
   inkscape:cy="326.36164"
   inkscape:document-units="mm"
   inkscape:pagecheckerboard="0"
   inkscape:pageopacity="0.0"
   inkscape:pageshadow="2"
   inkscape:snap-grids="true"
   inkscape:snap-page="false"
   inkscape:window-height="847"
   inkscape:window-maximized="0"
   inkscape:window-width="1312"
   inkscape:window-x="127"
   inkscape:window-y="25"
   inkscape:zoom="0.81657881"
   pagecolor="#ffffff"
   showgrid="false">
	</sodipodi:namedview>
<g
   id="layer1"
   inkscape:groupmode="layer"
   inkscape:label="Layer 1"
   transform="translate(-138.07334,-50.281555)">
	<g
   id="g829"
   transform="translate(-28.684949,166.30175)">
				
			</g><g
   id="g836"
   transform="translate(-28.684949,166.30175)">
				
			</g><g
   id="g843"
   transform="translate(-28.684949,166.30175)">
				
			</g><g
   id="g850"
   transform="translate(-28.684949,166.30175)">
				
			</g><g
   id="g857"
   transform="matrix(0.99963232,0,0,1.0300747,-10.972811,-168.60832)"
   style="fill:#f1e7ee;fill-opacity:1;stroke:#f1e7ee;stroke-opacity:1"
   inkscape:export-filename="/Users/julianaa/Desktop/Web Design/paw.png"
   inkscape:export-xdpi="96"
   inkscape:export-ydpi="96">
				<path
   id="ellipse855"
   style="fill:#f1f1f1;fill-opacity:1;stroke:none;stroke-width:0.968404;stroke-linecap:round;stroke-linejoin:round;stroke-miterlimit:11.3386;stroke-dasharray:none;stroke-opacity:1"
   class="st0"
   d="m 241.71484,378.80078 c -16.6,0 -32.49961,7.80039 -43.59961,21.40039 -9.8,12.1 -15.19921,27.6 -15.19921,44 0,0.55199 0.0542,1.09447 0.0664,1.64453 a 58.900002,63.200001 0 0 0 -3.66797,-0.44336 58.900002,63.200001 0 0 0 -58.89843,63.19922 58.900002,63.200001 0 0 0 35.79101,57.85938 c -3.89136,9.48907 -6.0918,19.81016 -6.0918,30.64062 0,22.3 8.89922,43.20039 25.19922,58.90039 16,15.3 37.20157,23.79883 59.60157,23.79883 h 1.29882 l 1.30078,-0.0996 c 10.40001,-0.9 19.49961,-2.6 27.59961,-4 8.9,-1.6 16.59961,-2.99922 24.59961,-3.19922 h 1 c 6.6,0 14.80078,1.70039 22.80078,3.40039 9.00001,1.9 18.29922,3.9 27.69922,4 l 0.59961,-0.10156 c 22.4,0 43.5,-8.39883 59.5,-23.79883 16.2,-15.7 25.20117,-36.60039 25.20117,-58.90039 0,-10.0753 -1.90913,-19.8311 -5.40429,-28.98437 a 58.900002,63.200001 0 0 0 40.20312,-59.51563 58.900002,63.200001 0 0 0 -58.89843,-63.19922 58.900002,63.200001 0 0 0 -10.70313,1.29297 c 0.0281,-0.83267 0.10156,-1.65643 0.10156,-2.49414 0,-16.4 -5.39922,-32 -15.19922,-44 -11.1,-13.6 -26.9996,-21.40039 -43.59961,-21.40039 -16.6,0 -32.4996,7.80039 -43.5996,21.40039 -0.72244,0.89199 -1.37071,1.83964 -2.04493,2.76758 -0.67801,-0.92846 -1.3298,-1.87758 -2.05664,-2.76758 -11.1,-13.6 -26.99961,-21.40039 -43.59961,-21.40039 z"
   transform="translate(28.684949,-166.30175)" />
			</g><g
   id="g1022"
   transform="matrix(0.99963232,0,0,1.0300747,6.0846194,-29.716458)"
   style="fill:#f35353;fill-opacity:1;stroke:#f37d8f;stroke-width:0.970189;stroke-miterlimit:11.3386;stroke-dasharray:none;stroke-opacity:1"
   inkscape:export-filename="/Users/julianaa/Desktop/Web Design/paw.png"
   inkscape:export-xdpi="96"
   inkscape:export-ydpi="96"><g
     id="path1264-2_7_"
     sodipodi:nodetypes="ccccczcccccc"
     transform="translate(-17.063523,-134.88687)"
     style="fill:#f35353;fill-opacity:1;stroke:#f37d8f;stroke-width:0.970189;stroke-miterlimit:11.3386;stroke-dasharray:none;stroke-opacity:1">
				<path
   class="st0"
   d="m 316.9,338.8 c -21.5,0 -41.1,15.3 -50.7,39.3 -0.9,0 -1.8,-0.1 -2.7,-0.1 -30.3,0 -54.8,23.6 -54.8,52.8 0,29.1 24.5,52.8 54.8,52.8 20.2,-1.8 35.4,-6.8 53.9,-7.3 18.5,-0.5 38.2,7.1 52.9,7.3 30.3,0 54.8,-23.6 54.8,-52.8 0,-29.1 -24.5,-52.8 -54.8,-52.8 -0.9,0 -1.8,0 -2.6,0.1 -9.6,-24 -29.3,-39.3 -50.8,-39.3 z"
   id="path831"
   style="fill:#f35353;fill-opacity:1;stroke:#f37d8f;stroke-width:0.968404;stroke-miterlimit:11.3386;stroke-dasharray:none;stroke-opacity:1" />
			</g><g
     id="path2230-3_7_"
     transform="translate(-17.063523,-134.88687)"
     style="fill:#f35353;fill-opacity:1;stroke:#f37d8f;stroke-width:0.970189;stroke-miterlimit:11.3386;stroke-dasharray:none;stroke-opacity:1">
				<ellipse
   class="st0"
   cx="270.39999"
   cy="277.89999"
   rx="28.799999"
   ry="35.299999"
   id="ellipse838"
   style="fill:#f35353;fill-opacity:1;stroke:#f37d8f;stroke-width:0.970189;stroke-miterlimit:11.3386;stroke-dasharray:none;stroke-opacity:1" />
			</g><g
     id="path2230-8-2_7_"
     transform="translate(-17.063523,-134.88687)"
     style="fill:#f35353;fill-opacity:1;stroke:#f37d8f;stroke-width:0.970189;stroke-miterlimit:11.3386;stroke-dasharray:none;stroke-opacity:1">
				<ellipse
   class="st0"
   cx="208"
   cy="342.29999"
   rx="28.9"
   ry="33.200001"
   id="ellipse845"
   style="fill:#f35353;fill-opacity:1;stroke:#f37d8f;stroke-width:0.970189;stroke-miterlimit:11.3386;stroke-dasharray:none;stroke-opacity:1" />
			</g><g
     id="path2230-8-7-0_7_"
     transform="translate(-17.063523,-134.88687)"
     style="fill:#f35353;fill-opacity:1;stroke:#f37d8f;stroke-width:0.970189;stroke-miterlimit:11.3386;stroke-dasharray:none;stroke-opacity:1">
				<ellipse
   class="st0"
   cx="361.70001"
   cy="277.89999"
   rx="28.799999"
   ry="35.299999"
   id="ellipse852"
   style="fill:#f35353;fill-opacity:1;stroke:#f37d8f;stroke-width:0.970189;stroke-miterlimit:11.3386;stroke-dasharray:none;stroke-opacity:1" />
			</g><g
     id="path2230-8-1-3_7_"
     transform="translate(-17.063523,-134.88687)"
     style="fill:#f35353;fill-opacity:1;stroke:#f37d8f;stroke-width:0.970189;stroke-miterlimit:11.3386;stroke-dasharray:none;stroke-opacity:1">
				<ellipse
   class="st0"
   cx="431.10001"
   cy="342.29999"
   rx="28.9"
   ry="33.200001"
   id="ellipse859"
   style="fill:#f35353;fill-opacity:1;stroke:#f37d8f;stroke-width:0.970189;stroke-miterlimit:11.3386;stroke-dasharray:none;stroke-opacity:1" />
			</g></g>
</g>
</svg>
